
      <svg data-logo="logo" xmlns="http://www.w3.org/2000/svg" viewBox="0 0 133.84000396728516 41">
        <g id="logogram" transform="
    translate(0, 0.5)
    rotate(0 20 20)
    
  "><path d="M13.0964 20.3536L17.6262 22.4473L17.046 27.6527L8.94876 36.8282C4.2486 33.8023 0.898178 28.8615 0 23.108L13.0964 20.3536Z" fill="currentColor"/><path d="M25.183 25.94L31.2414 36.3789C27.992 38.6605 24.0331 40 19.7612 40C18.3744 40 17.0206 39.8587 15.7133 39.59L17.046 27.6527L20.4765 23.7656L25.183 25.94Z" fill="currentColor"/><path d="M39.1022 14.881C39.5332 16.5143 39.763 18.2294 39.763 19.9982C39.763 24.1145 38.5192 27.9403 36.3874 31.1207L25.184 25.9405L22.5551 21.4123L25.8574 17.6692L39.1022 14.881Z" fill="currentColor"/><path d="M17.0459 27.6524L17.0458 27.6527L17.1686 26.552L17.0459 27.6524Z" fill="currentColor"/><path d="M20.132 0C26.1504 0.109415 31.5194 2.877 35.1148 7.17842L25.8561 17.6694L20.9792 18.6959L18.519 14.4574L20.132 0Z" fill="currentColor"/><path d="M18.519 14.4574L17.9745 19.3269L13.0991 20.353L0.514709 14.5347C2.09964 8.94044 6.05794 4.3436 11.2327 1.9007L18.519 14.4574Z" fill="currentColor"/></g>
        <g id="logotype" transform="translate(46, 7.31201171875)"><path fill="currentColor" d="M13.52 26L8.31 26L8.31 0.54L25.06 0.54L25.06 4.86L13.52 4.86L13.52 11.97L23.93 11.97L23.93 16.22L13.52 16.22L13.52 26ZM26.45 0.54L31.58 0.54L31.58 26L26.45 26L26.45 0.54ZM40.24 26.24L40.24 26.24Q38.26 26.24 36.77 25.38Q35.29 24.51 34.48 22.90Q33.66 21.28 33.66 19.04L33.66 19.04L33.66 6.89L38.79 6.89L38.79 18.16Q38.79 19.93 39.71 20.94Q40.64 21.95 42.24 21.95L42.24 21.95Q43.34 21.95 44.17 21.48Q45.01 21.01 45.48 20.11Q45.95 19.22 45.95 17.95L45.95 17.95L45.95 6.89L51.08 6.89L51.08 26L46.24 26L46.17 21.23L46.46 21.23Q45.71 23.64 44.17 24.94Q42.62 26.24 40.24 26.24ZM57.14 26L51.71 26L59.11 14.19L59.09 18.19L52.09 6.89L57.62 6.89L59.35 9.92Q60.17 11.39 60.83 12.83Q61.48 14.28 62.17 15.64L62.17 15.64L60.22 15.64Q60.92 14.29 61.57 12.84Q62.22 11.39 63.07 9.92L63.07 9.92L64.87 6.89L70.30 6.89L63.16 18.24L63.16 14.29L70.58 26L65.07 26L62.95 22.39Q62.12 20.94 61.44 19.49Q60.77 18.04 60.07 16.70L60.07 16.70L62.03 16.70Q61.36 18.04 60.72 19.49Q60.08 20.94 59.26 22.39L59.26 22.39L57.14 26ZM76.54 26.38L76.54 26.38Q74.73 26.38 73.28 25.74Q71.84 25.09 71.01 23.82Q70.18 22.55 70.18 20.65L70.18 20.65Q70.18 19.06 70.77 17.98Q71.36 16.91 72.38 16.26Q73.39 15.61 74.68 15.27Q75.97 14.93 77.39 14.79L77.39 14.79Q79.05 14.62 80.07 14.47Q81.08 14.33 81.55 14.01Q82.02 13.70 82.02 13.08L82.02 13.08L82.02 12.99Q82.02 12.17 81.68 11.61Q81.34 11.05 80.67 10.75Q80.01 10.45 79.03 10.45L79.03 10.45Q78.04 10.45 77.31 10.75Q76.57 11.05 76.11 11.54Q75.65 12.04 75.43 12.65L75.43 12.65L70.73 11.87Q71.22 10.21 72.37 9.05Q73.51 7.88 75.21 7.27Q76.91 6.65 79.03 6.65L79.03 6.65Q80.59 6.65 82.04 7.02Q83.49 7.39 84.65 8.16Q85.80 8.93 86.48 10.16Q87.15 11.39 87.15 13.13L87.15 13.13L87.15 26L82.30 26L82.30 23.35L82.13 23.35Q81.67 24.24 80.90 24.91Q80.13 25.59 79.04 25.98Q77.96 26.38 76.54 26.38ZM77.99 22.77L77.99 22.77Q79.20 22.77 80.12 22.29Q81.03 21.81 81.55 20.99Q82.06 20.17 82.06 19.16L82.06 19.16L82.06 17.10Q81.84 17.27 81.38 17.40Q80.91 17.54 80.35 17.64Q79.79 17.75 79.24 17.83Q78.69 17.92 78.26 17.97L78.26 17.97Q77.32 18.10 76.61 18.41Q75.89 18.72 75.50 19.22Q75.10 19.73 75.10 20.51L75.10 20.51Q75.10 21.25 75.48 21.75Q75.86 22.26 76.50 22.51Q77.14 22.77 77.99 22.77Z"/></g>
        
      </svg>
    