
      <svg data-logo="logo" xmlns="http://www.w3.org/2000/svg" viewBox="0 0 131.8300018310547 41">
        <g id="logogram" transform="
    translate(0, 0.5)
    rotate(0 20 20)
    
  "><path d="M13.0964 20.3536L17.6262 22.4473L17.046 27.6527L8.94876 36.8282C4.2486 33.8023 0.898178 28.8615 0 23.108L13.0964 20.3536Z" fill="currentColor"/><path d="M25.183 25.94L31.2414 36.3789C27.992 38.6605 24.0331 40 19.7612 40C18.3744 40 17.0206 39.8587 15.7133 39.59L17.046 27.6527L20.4765 23.7656L25.183 25.94Z" fill="currentColor"/><path d="M39.1022 14.881C39.5332 16.5143 39.763 18.2294 39.763 19.9982C39.763 24.1145 38.5192 27.9403 36.3874 31.1207L25.184 25.9405L22.5551 21.4123L25.8574 17.6692L39.1022 14.881Z" fill="currentColor"/><path d="M17.0459 27.6524L17.0458 27.6527L17.1686 26.552L17.0459 27.6524Z" fill="currentColor"/><path d="M20.132 0C26.1504 0.109415 31.5194 2.877 35.1148 7.17842L25.8561 17.6694L20.9792 18.6959L18.519 14.4574L20.132 0Z" fill="currentColor"/><path d="M18.519 14.4574L17.9745 19.3269L13.0991 20.353L0.514709 14.5347C2.09964 8.94044 6.05794 4.3436 11.2327 1.9007L18.519 14.4574Z" fill="currentColor"/></g>
        <g id="logotype" transform="translate(46, 7.31201171875)"><path fill="currentColor" d="M13.64 26L8.31 26L8.31 0.54L14.12 0.54L22.17 13.42Q22.78 14.41 23.41 15.58Q24.05 16.74 24.70 18.16Q25.36 19.57 26.01 21.35L26.01 21.35L25.48 21.35Q25.36 19.93 25.27 18.33Q25.17 16.72 25.11 15.25Q25.04 13.78 25.04 12.76L25.04 12.76L25.04 0.54L30.37 0.54L30.37 26L24.54 26L17.23 14.31Q16.42 12.99 15.74 11.76Q15.06 10.52 14.31 9.01Q13.57 7.51 12.55 5.44L12.55 5.44L13.21 5.44Q13.31 7.29 13.42 8.98Q13.52 10.67 13.58 12.05Q13.64 13.42 13.64 14.29L13.64 14.29L13.64 26ZM41.22 26.38L41.22 26.38Q38.30 26.38 36.18 25.18Q34.06 23.98 32.92 21.78Q31.79 19.57 31.79 16.55L31.79 16.55Q31.79 13.59 32.91 11.37Q34.04 9.15 36.11 7.90Q38.18 6.65 40.96 6.65L40.96 6.65Q42.84 6.65 44.47 7.25Q46.09 7.85 47.32 9.06Q48.55 10.26 49.24 12.07Q49.94 13.88 49.94 16.34L49.94 16.34L49.94 17.78L33.89 17.78L33.89 14.57L47.42 14.57L45.03 15.42Q45.03 13.93 44.58 12.83Q44.13 11.73 43.23 11.12Q42.33 10.52 41.00 10.52L41.00 10.52Q39.68 10.52 38.75 11.13Q37.82 11.75 37.34 12.80Q36.86 13.85 36.86 15.20L36.86 15.20L36.86 17.47Q36.86 19.13 37.42 20.26Q37.97 21.39 38.97 21.95Q39.97 22.51 41.31 22.51L41.31 22.51Q42.21 22.51 42.95 22.26Q43.68 22.00 44.20 21.50Q44.72 20.99 45.00 20.26L45.00 20.26L49.65 21.13Q49.18 22.70 48.04 23.89Q46.89 25.08 45.18 25.73Q43.46 26.38 41.22 26.38ZM55.13 26L49.69 26L57.09 14.19L57.08 18.19L50.07 6.89L55.61 6.89L57.33 9.92Q58.15 11.39 58.81 12.83Q59.47 14.28 60.15 15.64L60.15 15.64L58.21 15.64Q58.91 14.29 59.56 12.84Q60.20 11.39 61.06 9.92L61.06 9.92L62.85 6.89L68.29 6.89L61.14 18.24L61.14 14.29L68.56 26L63.06 26L60.94 22.39Q60.10 20.94 59.43 19.49Q58.75 18.04 58.05 16.70L58.05 16.70L60.02 16.70Q59.35 18.04 58.71 19.49Q58.07 20.94 57.25 22.39L57.25 22.39L55.13 26ZM74.52 26.38L74.52 26.38Q72.71 26.38 71.27 25.74Q69.82 25.09 69.00 23.82Q68.17 22.55 68.17 20.65L68.17 20.65Q68.17 19.06 68.76 17.98Q69.35 16.91 70.36 16.26Q71.38 15.61 72.67 15.27Q73.96 14.93 75.38 14.79L75.38 14.79Q77.04 14.62 78.05 14.47Q79.07 14.33 79.54 14.01Q80.01 13.70 80.01 13.08L80.01 13.08L80.01 12.99Q80.01 12.17 79.67 11.61Q79.33 11.05 78.66 10.75Q77.99 10.45 77.02 10.45L77.02 10.45Q76.03 10.45 75.29 10.75Q74.56 11.05 74.10 11.54Q73.64 12.04 73.41 12.65L73.41 12.65L68.71 11.87Q69.21 10.21 70.35 9.05Q71.50 7.88 73.20 7.27Q74.90 6.65 77.02 6.65L77.02 6.65Q78.57 6.65 80.03 7.02Q81.48 7.39 82.63 8.16Q83.79 8.93 84.46 10.16Q85.14 11.39 85.14 13.13L85.14 13.13L85.14 26L80.28 26L80.28 23.35L80.11 23.35Q79.65 24.24 78.88 24.91Q78.11 25.59 77.03 25.98Q75.94 26.38 74.52 26.38ZM75.98 22.77L75.98 22.77Q77.19 22.77 78.10 22.29Q79.02 21.81 79.53 20.99Q80.04 20.17 80.04 19.16L80.04 19.16L80.04 17.10Q79.82 17.27 79.36 17.40Q78.90 17.54 78.34 17.64Q77.77 17.75 77.22 17.83Q76.68 17.92 76.25 17.97L76.25 17.97Q75.31 18.10 74.59 18.41Q73.87 18.72 73.48 19.22Q73.09 19.73 73.09 20.51L73.09 20.51Q73.09 21.25 73.46 21.75Q73.84 22.26 74.48 22.51Q75.12 22.77 75.98 22.77Z"/></g>
        
      </svg>
    