
      <svg data-logo="logo" xmlns="http://www.w3.org/2000/svg" viewBox="0 0 153.10000610351562 41">
        <g id="logogram" transform="
    translate(0, 0.5)
    rotate(0 20 20)
    
  "><path d="M20 0C9.50659 0 1 8.50659 1 19V20.1719L4 23.1719V19C4 10.1634 11.1634 3 20 3C28.8366 3 36 10.1634 36 19V23.1719L39 20.1719V19C39 8.50659 30.4934 0 20 0ZM20 10C15.0294 10 11 14.0294 11 19V31.0498C11 31.5743 10.5743 32 10.0498 32C9.7981 31.9999 9.55691 31.8997 9.37891 31.7217L0 22.3428V26.585L7.25781 33.8428C7.99842 34.5834 9.00245 34.9999 10.0498 35C12.2312 35 14 33.2312 14 31.0498V19C14 15.6863 16.6863 13 20 13C23.3137 13 26 15.6863 26 19V31.0498C26 33.2312 27.7688 35 29.9502 35C30.9976 34.9999 32.0016 34.5834 32.7422 33.8428L34.7066 31.8785L37.7066 28.8785L40 26.585V22.3428L37.8789 24.4639L35.5854 26.7574L32.5854 29.7574L30.6211 31.7217C30.4431 31.8997 30.2019 31.9999 29.9502 32C29.4257 32 29 31.5743 29 31.0498V19C29 14.0294 24.9706 10 20 10ZM20 15C17.7909 15 16 16.7909 16 19V31.0498C16 34.3358 13.3358 37 10.0498 37C8.47201 36.9999 6.95846 36.3735 5.84277 35.2578L0 29.4141V33.6562L3.72168 37.3789C5.39997 39.0572 7.67636 39.9999 10.0498 40C14.9926 40 19 35.9926 19 31.0498V19C19 18.4477 19.4477 18 20 18C20.5523 18 21 18.4477 21 19V31.0498C21 35.9926 25.0074 40 29.9502 40C32.3236 39.9999 34.6 39.0572 36.2783 37.3789L40 33.6562V29.4141L34.1572 35.2578C33.0415 36.3735 31.528 36.9999 29.9502 37C26.6642 37 24 34.3358 24 31.0498V19C24 16.7909 22.2091 15 20 15ZM20 5C12.268 5 6 11.268 6 19V25.1719L9 28.1719V19C9 12.9249 13.9249 8 20 8C26.0751 8 31 12.9249 31 19V28.1719L34 25.1719V19C34 11.268 27.732 5 20 5Z" fill="currentColor"/></g>
        <g id="logotype" transform="translate(46, 7.31201171875)"><path fill="currentColor" d="M22.58 26L15.76 26L6.84 0.54L12.63 0.54L16.70 12.82Q17.43 15.15 18.19 17.94Q18.94 20.74 19.77 24.05L19.77 24.05L18.65 24.05Q19.47 20.70 20.18 17.93Q20.90 15.15 21.60 12.82L21.60 12.82L25.53 0.54L31.29 0.54L22.58 26ZM40.67 26.38L40.67 26.38Q37.75 26.38 35.63 25.18Q33.51 23.98 32.38 21.78Q31.24 19.57 31.24 16.55L31.24 16.55Q31.24 13.59 32.37 11.37Q33.50 9.15 35.56 7.90Q37.63 6.65 40.42 6.65L40.42 6.65Q42.30 6.65 43.92 7.25Q45.54 7.85 46.77 9.06Q48.00 10.26 48.70 12.07Q49.39 13.88 49.39 16.34L49.39 16.34L49.39 17.78L33.34 17.78L33.34 14.57L46.88 14.57L44.48 15.42Q44.48 13.93 44.03 12.83Q43.58 11.73 42.68 11.12Q41.78 10.52 40.45 10.52L40.45 10.52Q39.14 10.52 38.20 11.13Q37.27 11.75 36.79 12.80Q36.32 13.85 36.32 15.20L36.32 15.20L36.32 17.47Q36.32 19.13 36.87 20.26Q37.43 21.39 38.43 21.95Q39.43 22.51 40.76 22.51L40.76 22.51Q41.66 22.51 42.40 22.26Q43.13 22.00 43.66 21.50Q44.18 20.99 44.45 20.26L44.45 20.26L49.10 21.13Q48.64 22.70 47.49 23.89Q46.35 25.08 44.63 25.73Q42.91 26.38 40.67 26.38ZM50.62 0.54L55.74 0.54L55.74 26L50.62 26L50.62 0.54ZM66.37 26.38L66.37 26.38Q63.50 26.38 61.40 25.14Q59.30 23.90 58.16 21.68Q57.02 19.47 57.02 16.53L57.02 16.53Q57.02 13.56 58.16 11.35Q59.30 9.13 61.40 7.89Q63.50 6.65 66.37 6.65L66.37 6.65Q69.26 6.65 71.35 7.89Q73.45 9.13 74.58 11.35Q75.72 13.56 75.72 16.53L75.72 16.53Q75.72 19.47 74.58 21.68Q73.45 23.90 71.35 25.14Q69.26 26.38 66.37 26.38ZM66.37 22.34L66.37 22.34Q67.74 22.34 68.66 21.58Q69.59 20.82 70.05 19.50Q70.51 18.17 70.51 16.52L70.51 16.52Q70.51 14.82 70.05 13.51Q69.59 12.19 68.66 11.44Q67.74 10.69 66.37 10.69L66.37 10.69Q65.01 10.69 64.09 11.44Q63.18 12.19 62.72 13.51Q62.25 14.82 62.25 16.52L62.25 16.52Q62.25 18.17 62.72 19.50Q63.18 20.82 64.09 21.58Q65.01 22.34 66.37 22.34ZM82.14 26L77.02 26L77.02 6.89L81.97 6.89L81.97 10.23L82.18 10.23Q82.71 8.45 83.95 7.54Q85.19 6.64 86.79 6.64L86.79 6.64Q87.19 6.64 87.64 6.68Q88.09 6.72 88.45 6.81L88.45 6.81L88.45 11.39Q88.11 11.27 87.46 11.20Q86.81 11.13 86.23 11.13L86.23 11.13Q85.07 11.13 84.13 11.64Q83.19 12.14 82.67 13.04Q82.14 13.93 82.14 15.13L82.14 15.13L82.14 26ZM94.33 26.38L94.33 26.38Q92.52 26.38 91.07 25.74Q89.63 25.09 88.80 23.82Q87.97 22.55 87.97 20.65L87.97 20.65Q87.97 19.06 88.56 17.98Q89.15 16.91 90.17 16.26Q91.18 15.61 92.47 15.27Q93.76 14.93 95.18 14.79L95.18 14.79Q96.84 14.62 97.86 14.47Q98.87 14.33 99.34 14.01Q99.81 13.70 99.81 13.08L99.81 13.08L99.81 12.99Q99.81 12.17 99.47 11.61Q99.13 11.05 98.46 10.75Q97.80 10.45 96.82 10.45L96.82 10.45Q95.83 10.45 95.10 10.75Q94.36 11.05 93.90 11.54Q93.44 12.04 93.22 12.65L93.22 12.65L88.52 11.87Q89.01 10.21 90.16 9.05Q91.30 7.88 93.00 7.27Q94.70 6.65 96.82 6.65L96.82 6.65Q98.38 6.65 99.83 7.02Q101.28 7.39 102.44 8.16Q103.59 8.93 104.26 10.16Q104.94 11.39 104.94 13.13L104.94 13.13L104.94 26L100.09 26L100.09 23.35L99.92 23.35Q99.45 24.24 98.69 24.91Q97.92 25.59 96.83 25.98Q95.75 26.38 94.33 26.38ZM95.78 22.77L95.78 22.77Q96.99 22.77 97.91 22.29Q98.82 21.81 99.33 20.99Q99.85 20.17 99.85 19.16L99.85 19.16L99.85 17.10Q99.63 17.27 99.16 17.40Q98.70 17.54 98.14 17.64Q97.57 17.75 97.03 17.83Q96.48 17.92 96.05 17.97L96.05 17.97Q95.11 18.10 94.40 18.41Q93.68 18.72 93.28 19.22Q92.89 19.73 92.89 20.51L92.89 20.51Q92.89 21.25 93.27 21.75Q93.64 22.26 94.28 22.51Q94.93 22.77 95.78 22.77Z"/></g>
        
      </svg>
    